<?xml version="1.0" encoding="utf-8"?>
<!-- Generator: Adobe Illustrator 22.0.0, SVG Export Plug-In . SVG Version: 6.00 Build 0)  -->
<svg version="1.1" id="Layer_1" xmlns="http://www.w3.org/2000/svg" xmlns:xlink="http://www.w3.org/1999/xlink" x="0px" y="0px"
	 viewBox="0 0 29.4 29.7" style="enable-background:new 0 0 29.4 29.7;" xml:space="preserve">
<style type="text/css">
	.st0{fill:#FFCC34;}
	.st1{fill:#333333;}
	.st2{fill:#FEFEFE;}
	.st3{fill:#FFFFFF;}
</style>
<title>Page 1</title>
<desc>Created with Sketch.</desc>
<g>
	<path id="Fill-1" class="st0" d="M29.4,14.8c0,8.2-6.7,14.9-14.9,14.9S-0.3,23-0.3,14.8C-0.3,6.7,6.3,0,14.5,0S29.4,6.7,29.4,14.8"
		/>
	<path id="Fill-4" class="st1" d="M26.5,14.8c0,6.6-5.3,11.9-11.9,11.9S2.7,21.4,2.7,14.8S8,2.9,14.6,2.9
		C21.1,2.9,26.5,8.2,26.5,14.8"/>
	<path id="Fill-6" class="st2" d="M6.8,18.9c-1-1-1.9-1.9-2.7-2.6l2.2-2.2l1.2,1L7.6,15c-0.2-0.8-0.3-2.3,1.1-3.7
		c1.1-1.1,2.5-1.4,3.7-0.8l0,0c-0.1-0.8-0.1-1.5,0.1-2.1c0.2-0.7,0.6-1.4,1.2-2c1.6-1.6,3.9-1.7,6.4,0.8l4.9,4.9l-2.5,2.5L18,10.1
		c-1.2-1.2-2.3-1.5-3.1-0.7c-0.6,0.6-0.6,1.4-0.3,2.1c0.1,0.2,0.4,0.5,0.6,0.7l4.9,4.9l-2.5,2.5L13,15c-1-1-2.1-1.4-3-0.5
		c-0.7,0.7-0.5,1.6-0.3,2.1c0.1,0.3,0.3,0.5,0.6,0.8l4.8,4.8l-2.5,2.5L6.8,18.9z"/>
</g>
</svg>
