<svg width="168" height="230" viewBox="0 0 168 230" fill="none" xmlns="http://www.w3.org/2000/svg">
<rect width="168" height="230" fill="#353F4C"/>
<path d="M35.1055 149H32.8555V131.938H35.1055V149ZM40.9297 136.32L40.9883 137.727C41.918 136.633 43.1719 136.086 44.75 136.086C46.5234 136.086 47.7305 136.766 48.3711 138.125C48.793 137.516 49.3398 137.023 50.0117 136.648C50.6914 136.273 51.4922 136.086 52.4141 136.086C55.1953 136.086 56.6094 137.559 56.6562 140.504V149H54.4883V140.633C54.4883 139.727 54.2812 139.051 53.8672 138.605C53.4531 138.152 52.7578 137.926 51.7812 137.926C50.9766 137.926 50.3086 138.168 49.7773 138.652C49.2461 139.129 48.9375 139.773 48.8516 140.586V149H46.6719V140.691C46.6719 138.848 45.7695 137.926 43.9648 137.926C42.543 137.926 41.5703 138.531 41.0469 139.742V149H38.8789V136.32H40.9297ZM67.7656 149C67.6406 148.75 67.5391 148.305 67.4609 147.664C66.4531 148.711 65.25 149.234 63.8516 149.234C62.6016 149.234 61.5742 148.883 60.7695 148.18C59.9727 147.469 59.5742 146.57 59.5742 145.484C59.5742 144.164 60.0742 143.141 61.0742 142.414C62.082 141.68 63.4961 141.312 65.3164 141.312H67.4258V140.316C67.4258 139.559 67.1992 138.957 66.7461 138.512C66.293 138.059 65.625 137.832 64.7422 137.832C63.9688 137.832 63.3203 138.027 62.7969 138.418C62.2734 138.809 62.0117 139.281 62.0117 139.836H59.832C59.832 139.203 60.0547 138.594 60.5 138.008C60.9531 137.414 61.5625 136.945 62.3281 136.602C63.1016 136.258 63.9492 136.086 64.8711 136.086C66.332 136.086 67.4766 136.453 68.3047 137.188C69.1328 137.914 69.5625 138.918 69.5938 140.199V146.035C69.5938 147.199 69.7422 148.125 70.0391 148.812V149H67.7656ZM64.168 147.348C64.8477 147.348 65.4922 147.172 66.1016 146.82C66.7109 146.469 67.1523 146.012 67.4258 145.449V142.848H65.7266C63.0703 142.848 61.7422 143.625 61.7422 145.18C61.7422 145.859 61.9688 146.391 62.4219 146.773C62.875 147.156 63.457 147.348 64.168 147.348ZM72.4766 142.555C72.4766 140.578 72.9336 139.008 73.8477 137.844C74.7617 136.672 75.9727 136.086 77.4805 136.086C79.0273 136.086 80.2344 136.633 81.1016 137.727L81.207 136.32H83.1875V148.695C83.1875 150.336 82.6992 151.629 81.7227 152.574C80.7539 153.52 79.4492 153.992 77.8086 153.992C76.8945 153.992 76 153.797 75.125 153.406C74.25 153.016 73.582 152.48 73.1211 151.801L74.2461 150.5C75.1758 151.648 76.3125 152.223 77.6562 152.223C78.7109 152.223 79.5312 151.926 80.1172 151.332C80.7109 150.738 81.0078 149.902 81.0078 148.824V147.734C80.1406 148.734 78.957 149.234 77.457 149.234C75.9727 149.234 74.7695 148.637 73.8477 147.441C72.9336 146.246 72.4766 144.617 72.4766 142.555ZM74.6562 142.801C74.6562 144.23 74.9492 145.355 75.5352 146.176C76.1211 146.988 76.9414 147.395 77.9961 147.395C79.3633 147.395 80.3672 146.773 81.0078 145.531V139.742C80.3438 138.531 79.3477 137.926 78.0195 137.926C76.9648 137.926 76.1406 138.336 75.5469 139.156C74.9531 139.977 74.6562 141.191 74.6562 142.801ZM91.7305 149.234C90.0117 149.234 88.6133 148.672 87.5352 147.547C86.457 146.414 85.918 144.902 85.918 143.012V142.613C85.918 141.355 86.1562 140.234 86.6328 139.25C87.1172 138.258 87.7891 137.484 88.6484 136.93C89.5156 136.367 90.4531 136.086 91.4609 136.086C93.1094 136.086 94.3906 136.629 95.3047 137.715C96.2188 138.801 96.6758 140.355 96.6758 142.379V143.281H88.0859C88.1172 144.531 88.4805 145.543 89.1758 146.316C89.8789 147.082 90.7695 147.465 91.8477 147.465C92.6133 147.465 93.2617 147.309 93.793 146.996C94.3242 146.684 94.7891 146.27 95.1875 145.754L96.5117 146.785C95.4492 148.418 93.8555 149.234 91.7305 149.234ZM91.4609 137.867C90.5859 137.867 89.8516 138.188 89.2578 138.828C88.6641 139.461 88.2969 140.352 88.1562 141.5H94.5078V141.336C94.4453 140.234 94.1484 139.383 93.6172 138.781C93.0859 138.172 92.3672 137.867 91.4609 137.867ZM107.199 136.32L107.27 137.914C108.238 136.695 109.504 136.086 111.066 136.086C113.746 136.086 115.098 137.598 115.121 140.621V149H112.953V140.609C112.945 139.695 112.734 139.02 112.32 138.582C111.914 138.145 111.277 137.926 110.41 137.926C109.707 137.926 109.09 138.113 108.559 138.488C108.027 138.863 107.613 139.355 107.316 139.965V149H105.148V136.32H107.199ZM117.816 142.543C117.816 141.301 118.059 140.184 118.543 139.191C119.035 138.199 119.715 137.434 120.582 136.895C121.457 136.355 122.453 136.086 123.57 136.086C125.297 136.086 126.691 136.684 127.754 137.879C128.824 139.074 129.359 140.664 129.359 142.648V142.801C129.359 144.035 129.121 145.145 128.645 146.129C128.176 147.105 127.5 147.867 126.617 148.414C125.742 148.961 124.734 149.234 123.594 149.234C121.875 149.234 120.48 148.637 119.41 147.441C118.348 146.246 117.816 144.664 117.816 142.695V142.543ZM119.996 142.801C119.996 144.207 120.32 145.336 120.969 146.188C121.625 147.039 122.5 147.465 123.594 147.465C124.695 147.465 125.57 147.035 126.219 146.176C126.867 145.309 127.191 144.098 127.191 142.543C127.191 141.152 126.859 140.027 126.195 139.168C125.539 138.301 124.664 137.867 123.57 137.867C122.5 137.867 121.637 138.293 120.98 139.145C120.324 139.996 119.996 141.215 119.996 142.801ZM135.02 133.25V136.32H137.387V137.996H135.02V145.859C135.02 146.367 135.125 146.75 135.336 147.008C135.547 147.258 135.906 147.383 136.414 147.383C136.664 147.383 137.008 147.336 137.445 147.242V149C136.875 149.156 136.32 149.234 135.781 149.234C134.812 149.234 134.082 148.941 133.59 148.355C133.098 147.77 132.852 146.938 132.852 145.859V137.996H130.543V136.32H132.852V133.25H135.02ZM56.1758 181V169.996H54.1719V168.32H56.1758V167.02C56.1758 165.66 56.5391 164.609 57.2656 163.867C57.9922 163.125 59.0195 162.754 60.3477 162.754C60.8477 162.754 61.3438 162.82 61.8359 162.953L61.7188 164.711C61.3516 164.641 60.9609 164.605 60.5469 164.605C59.8438 164.605 59.3008 164.812 58.918 165.227C58.5352 165.633 58.3438 166.219 58.3438 166.984V168.32H61.0508V169.996H58.3438V181H56.1758ZM62.8789 174.543C62.8789 173.301 63.1211 172.184 63.6055 171.191C64.0977 170.199 64.7773 169.434 65.6445 168.895C66.5195 168.355 67.5156 168.086 68.6328 168.086C70.3594 168.086 71.7539 168.684 72.8164 169.879C73.8867 171.074 74.4219 172.664 74.4219 174.648V174.801C74.4219 176.035 74.1836 177.145 73.707 178.129C73.2383 179.105 72.5625 179.867 71.6797 180.414C70.8047 180.961 69.7969 181.234 68.6562 181.234C66.9375 181.234 65.543 180.637 64.4727 179.441C63.4102 178.246 62.8789 176.664 62.8789 174.695V174.543ZM65.0586 174.801C65.0586 176.207 65.3828 177.336 66.0312 178.188C66.6875 179.039 67.5625 179.465 68.6562 179.465C69.7578 179.465 70.6328 179.035 71.2812 178.176C71.9297 177.309 72.2539 176.098 72.2539 174.543C72.2539 173.152 71.9219 172.027 71.2578 171.168C70.6016 170.301 69.7266 169.867 68.6328 169.867C67.5625 169.867 66.6992 170.293 66.043 171.145C65.3867 171.996 65.0586 173.215 65.0586 174.801ZM84.9688 179.746C84.125 180.738 82.8867 181.234 81.2539 181.234C79.9023 181.234 78.8711 180.844 78.1602 180.062C77.457 179.273 77.1016 178.109 77.0938 176.57V168.32H79.2617V176.512C79.2617 178.434 80.043 179.395 81.6055 179.395C83.2617 179.395 84.3633 178.777 84.9102 177.543V168.32H87.0781V181H85.0156L84.9688 179.746ZM92.4336 168.32L92.5039 169.914C93.4727 168.695 94.7383 168.086 96.3008 168.086C98.9805 168.086 100.332 169.598 100.355 172.621V181H98.1875V172.609C98.1797 171.695 97.9688 171.02 97.5547 170.582C97.1484 170.145 96.5117 169.926 95.6445 169.926C94.9414 169.926 94.3242 170.113 93.793 170.488C93.2617 170.863 92.8477 171.355 92.5508 171.965V181H90.3828V168.32H92.4336ZM103.098 174.555C103.098 172.609 103.559 171.047 104.48 169.867C105.402 168.68 106.609 168.086 108.102 168.086C109.586 168.086 110.762 168.594 111.629 169.609V163H113.797V181H111.805L111.699 179.641C110.832 180.703 109.625 181.234 108.078 181.234C106.609 181.234 105.41 180.633 104.48 179.43C103.559 178.227 103.098 176.656 103.098 174.719V174.555ZM105.266 174.801C105.266 176.238 105.562 177.363 106.156 178.176C106.75 178.988 107.57 179.395 108.617 179.395C109.992 179.395 110.996 178.777 111.629 177.543V171.719C110.98 170.523 109.984 169.926 108.641 169.926C107.578 169.926 106.75 170.336 106.156 171.156C105.562 171.977 105.266 173.191 105.266 174.801Z" fill="white"/>
<path d="M75.4219 72.3359C76.6719 72.3359 77.7109 72.7109 78.5391 73.4609C79.3672 74.1953 79.7812 75.1406 79.7812 76.2969C79.7812 77.4531 79.3672 78.4062 78.5391 79.1562C77.7109 79.8906 76.6719 80.2578 75.4219 80.2578C74.1562 80.2578 73.1094 79.8828 72.2812 79.1328C71.4688 78.3828 71.0625 77.4375 71.0625 76.2969C71.0625 75.1562 71.4688 74.2109 72.2812 73.4609C73.1094 72.7109 74.1562 72.3359 75.4219 72.3359ZM75.4219 53.6328C76.6719 53.6328 77.7109 54.0078 78.5391 54.7578C79.3672 55.4922 79.7812 56.4375 79.7812 57.5938C79.7812 58.75 79.3672 59.7031 78.5391 60.4531C77.7109 61.1875 76.6719 61.5547 75.4219 61.5547C74.1562 61.5547 73.1094 61.1797 72.2812 60.4297C71.4688 59.6797 71.0625 58.7344 71.0625 57.5938C71.0625 56.4531 71.4688 55.5078 72.2812 54.7578C73.1094 54.0078 74.1562 53.6328 75.4219 53.6328ZM85.5469 66.125C85.5469 62.3125 86.0547 58.7656 87.0703 55.4844C88.0859 52.2031 89.4844 49.4219 91.2656 47.1406C93.0625 44.8594 95.0547 43.2656 97.2422 42.3594L98.7422 46.25C96.5547 47.8594 94.8594 50.375 93.6562 53.7969C92.4688 57.2031 91.8672 61.2031 91.8516 65.7969V66.8281C91.8516 71.5312 92.4453 75.6094 93.6328 79.0625C94.8359 82.5156 96.5391 85.0469 98.7422 86.6562L97.2422 90.5469C95.0859 89.6719 93.0938 88.0703 91.2656 85.7422C89.4531 83.4297 88.0547 80.6641 87.0703 77.4453C86.0859 74.2266 85.5781 70.8047 85.5469 67.1797V66.125Z" fill="white"/>
</svg>
